<mxfile host="www.draw.io" modified="2019-11-18T11:31:51.327Z" agent="Mozilla/5.0 (Macintosh; Intel Mac OS X 10_14_0) AppleWebKit/537.36 (KHTML, like Gecko) Chrome/78.0.3904.97 Safari/537.36" etag="LnqVanVwp1yD-6k8C9my" version="12.2.6" type="github" pages="1">
  <diagram id="3gFWONBUT3Eb7XBh1pEl" name="第 1 页">
    <mxGraphModel dx="1227" dy="673" grid="1" gridSize="10" guides="1" tooltips="1" connect="1" arrows="1" fold="1" page="1" pageScale="1" pageWidth="10000" pageHeight="10000" math="0" shadow="0">
      <root>
        <mxCell id="0"/>
        <mxCell id="1" parent="0"/>
      </root>
    </mxGraphModel>
  </diagram>
</mxfile>
